<svg id="visual" viewBox="0 0 1080 200" width="1080" height="200" xmlns="http://www.w3.org/2000/svg" xmlns:xlink="http://www.w3.org/1999/xlink" version="1.1"><path d="M0 75L90 86C180 97 360 119 540 107C720 95 900 49 990 26L1080 3L1080 0L990 0C900 0 720 0 540 0C360 0 180 0 90 0L0 0Z" fill="#075060"></path><path d="M0 129L90 140.3C180 151.7 360 174.3 540 171.3C720 168.3 900 139.7 990 125.3L1080 111L1080 1L990 24C900 47 720 93 540 105C360 117 180 95 90 84L0 73Z" fill="#086e83"></path><path d="M0 201L90 201C180 201 360 201 540 201C720 201 900 201 990 201L1080 201L1080 109L990 123.3C900 137.7 720 166.3 540 169.3C360 172.3 180 149.7 90 138.3L0 127Z" fill="#3693a8"></path></svg>