<svg id="visual" viewBox="0 0 1080 500" width="1080" height="500" xmlns="http://www.w3.org/2000/svg" xmlns:xlink="http://www.w3.org/1999/xlink" version="1.1"><path d="M0 186L90 213.5C180 241 360 296 540 266C720 236 900 121 990 63.5L1080 6L1080 0L990 0C900 0 720 0 540 0C360 0 180 0 90 0L0 0Z" fill="#075060"></path><path d="M0 321L90 349.3C180 377.7 360 434.3 540 426.8C720 419.3 900 347.7 990 311.8L1080 276L1080 4L990 61.5C900 119 720 234 540 264C360 294 180 239 90 211.5L0 184Z" fill="#086e83"></path><path d="M0 501L90 501C180 501 360 501 540 501C720 501 900 501 990 501L1080 501L1080 274L990 309.8C900 345.7 720 417.3 540 424.8C360 432.3 180 375.7 90 347.3L0 319Z" fill="#3693a8"></path></svg>