<svg id="visual" viewBox="0 0 1080 200" width="1080" height="200" xmlns="http://www.w3.org/2000/svg" xmlns:xlink="http://www.w3.org/1999/xlink" version="1.1"><path d="M0 49L47 45L94 9L141 61L188 53L235 63L282 63L329 35L376 61L423 51L470 49L517 21L563 33L610 27L657 9L704 5L751 21L798 9L845 49L892 39L939 5L986 61L1033 19L1080 67L1080 0L1033 0L986 0L939 0L892 0L845 0L798 0L751 0L704 0L657 0L610 0L563 0L517 0L470 0L423 0L376 0L329 0L282 0L235 0L188 0L141 0L94 0L47 0L0 0Z" fill="#086e83"></path><path d="M0 63L47 121L94 47L141 77L188 63L235 91L282 87L329 75L376 91L423 53L470 57L517 69L563 81L610 79L657 65L704 75L751 61L798 73L845 65L892 47L939 53L986 89L1033 81L1080 69L1080 65L1033 17L986 59L939 3L892 37L845 47L798 7L751 19L704 3L657 7L610 25L563 31L517 19L470 47L423 49L376 59L329 33L282 61L235 61L188 51L141 59L94 7L47 43L0 47Z" fill="#076b81"></path><path d="M0 79L47 151L94 73L141 83L188 69L235 103L282 97L329 85L376 93L423 83L470 69L517 89L563 81L610 99L657 85L704 75L751 75L798 95L845 77L892 65L939 57L986 105L1033 101L1080 71L1080 67L1033 79L986 87L939 51L892 45L845 63L798 71L751 59L704 73L657 63L610 77L563 79L517 67L470 55L423 51L376 89L329 73L282 85L235 89L188 61L141 75L94 45L47 119L0 61Z" fill="#06687e"></path><path d="M0 79L47 151L94 75L141 97L188 85L235 105L282 103L329 91L376 93L423 83L470 81L517 105L563 85L610 101L657 101L704 81L751 77L798 111L845 95L892 85L939 77L986 117L1033 115L1080 83L1080 69L1033 99L986 103L939 55L892 63L845 75L798 93L751 73L704 73L657 83L610 97L563 79L517 87L470 67L423 81L376 91L329 83L282 95L235 101L188 67L141 81L94 71L47 149L0 77Z" fill="#06657c"></path><path d="M0 99L47 159L94 75L141 105L188 91L235 125L282 107L329 111L376 109L423 85L470 91L517 117L563 95L610 109L657 117L704 85L751 89L798 123L845 111L892 89L939 95L986 119L1033 119L1080 83L1080 81L1033 113L986 115L939 75L892 83L845 93L798 109L751 75L704 79L657 99L610 99L563 83L517 103L470 79L423 81L376 91L329 89L282 101L235 103L188 83L141 95L94 73L47 149L0 77Z" fill="#06627a"></path><path d="M0 135L47 169L94 107L141 151L188 137L235 153L282 143L329 147L376 121L423 119L470 129L517 131L563 101L610 115L657 153L704 143L751 133L798 133L845 123L892 119L939 115L986 173L1033 119L1080 123L1080 81L1033 117L986 117L939 93L892 87L845 109L798 121L751 87L704 83L657 115L610 107L563 93L517 115L470 89L423 83L376 107L329 109L282 105L235 123L188 89L141 103L94 73L47 157L0 97Z" fill="#065f77"></path><path d="M0 155L47 169L94 135L141 161L188 141L235 153L282 145L329 153L376 155L423 137L470 151L517 161L563 123L610 151L657 171L704 151L751 141L798 149L845 151L892 135L939 147L986 173L1033 147L1080 165L1080 121L1033 117L986 171L939 113L892 117L845 121L798 131L751 131L704 141L657 151L610 113L563 99L517 129L470 127L423 117L376 119L329 145L282 141L235 151L188 135L141 149L94 105L47 167L0 133Z" fill="#065c75"></path><path d="M0 155L47 169L94 143L141 167L188 143L235 159L282 151L329 167L376 159L423 155L470 159L517 175L563 133L610 169L657 171L704 161L751 143L798 155L845 157L892 139L939 159L986 175L1033 159L1080 167L1080 163L1033 145L986 171L939 145L892 133L845 149L798 147L751 139L704 149L657 169L610 149L563 121L517 159L470 149L423 135L376 153L329 151L282 143L235 151L188 139L141 159L94 133L47 167L0 153Z" fill="#075972"></path><path d="M0 171L47 183L94 153L141 179L188 147L235 175L282 161L329 175L376 173L423 161L470 167L517 191L563 137L610 175L657 173L704 165L751 153L798 161L845 169L892 155L939 163L986 177L1033 169L1080 171L1080 165L1033 157L986 173L939 157L892 137L845 155L798 153L751 141L704 159L657 169L610 167L563 131L517 173L470 157L423 153L376 157L329 165L282 149L235 157L188 141L141 165L94 141L47 167L0 153Z" fill="#085670"></path><path d="M0 171L47 189L94 175L141 183L188 169L235 183L282 179L329 181L376 181L423 173L470 179L517 199L563 161L610 185L657 191L704 167L751 175L798 171L845 175L892 175L939 167L986 179L1033 187L1080 187L1080 169L1033 167L986 175L939 161L892 153L845 167L798 159L751 151L704 163L657 171L610 173L563 135L517 189L470 165L423 159L376 171L329 173L282 159L235 173L188 145L141 177L94 151L47 181L0 169Z" fill="#08536d"></path><path d="M0 195L47 191L94 193L141 187L188 189L235 201L282 189L329 199L376 191L423 201L470 187L517 201L563 187L610 199L657 201L704 199L751 199L798 191L845 189L892 191L939 197L986 193L1033 201L1080 187L1080 185L1033 185L986 177L939 165L892 173L845 173L798 169L751 173L704 165L657 189L610 183L563 159L517 197L470 177L423 171L376 179L329 179L282 177L235 181L188 167L141 181L94 173L47 187L0 169Z" fill="#09506b"></path><path d="M0 201L47 201L94 201L141 201L188 201L235 201L282 201L329 201L376 201L423 201L470 201L517 201L563 201L610 201L657 201L704 201L751 201L798 201L845 201L892 201L939 201L986 201L1033 201L1080 201L1080 185L1033 199L986 191L939 195L892 189L845 187L798 189L751 197L704 197L657 199L610 197L563 185L517 199L470 185L423 199L376 189L329 197L282 187L235 199L188 187L141 185L94 191L47 189L0 193Z" fill="#0a4d68"></path></svg>